<svg style="color: #000" width="128" height="67" viewBox="0 0 128 67" fill="none" xmlns="http://www.w3.org/2000/svg">
<path d="M41.2166 17.4848C48.3826 8.81809 67.5276 -3.31524 86.7795 17.4848C93.3038 23.4848 109.369 31.8848 121.433 17.4848" stroke="white" stroke-width="10"/>
<path d="M41.2166 34.4848C48.3826 25.8181 67.5276 13.6848 86.7795 34.4848C93.3038 40.4848 109.369 48.8848 121.433 34.4848" stroke="white" stroke-width="10"/>
<path d="M43.7834 53.4848C50.9495 44.8181 70.0945 32.6848 89.3464 53.4848C95.8707 59.4848 111.935 67.8848 124 53.4848" stroke="white" stroke-width="10"/>
<path d="M-39 16.4848C-31.834 7.81809 -12.689 -4.31524 6.56299 16.4848C13.0873 22.4848 29.152 30.8848 41.2165 16.4848" stroke="white" stroke-width="10"/>
<path d="M-39 33.4848C-31.834 24.8181 -12.689 12.6848 6.56299 33.4848C13.0873 39.4848 29.152 47.8848 41.2165 33.4848" stroke="white" stroke-width="10"/>
<path d="M-36.4331 52.4848C-29.2671 43.8181 -10.1221 31.6848 9.12989 52.4848C15.6542 58.4848 31.7189 66.8848 43.7834 52.4848" stroke="white" stroke-width="10"/>
</svg>
