<svg width="140" height="71" viewBox="0 0 140 71" fill="none" xmlns="http://www.w3.org/2000/svg">
<path d="M84.7218 19.0865C91.0562 9.79462 108.998 -4.05616 130.09 14.8756C137.141 20.2469 153.913 27.1263 164.595 11.6729" stroke="white" stroke-width="10"/>
<path d="M86.2929 36.0137C92.6272 26.7219 110.569 12.8711 131.661 31.8028C138.712 37.1741 155.484 44.0535 166.166 28.6001" stroke="white" stroke-width="10"/>
<path d="M90.6049 54.6954C96.9392 45.4035 114.881 31.5527 135.973 50.4844C143.024 55.8558 159.796 62.7351 170.478 47.2818" stroke="white" stroke-width="10"/>
<path d="M4.84853 26.5001C11.1829 17.2082 29.1246 3.35741 50.2165 22.2891C57.2674 27.6605 74.0397 34.5398 84.7217 19.0864" stroke="white" stroke-width="10"/>
<path d="M6.41958 43.4273C12.7539 34.1354 30.6957 20.2847 51.7876 39.2164C58.8384 44.5877 75.6107 51.4671 86.2928 36.0137" stroke="white" stroke-width="10"/>
<path d="M10.7316 62.1089C17.066 52.8171 35.0077 38.9663 56.0996 57.898C63.1504 63.2694 79.9227 70.1487 90.6048 54.6953" stroke="white" stroke-width="10"/>
</svg>
